<?xml version="1.0" encoding="UTF-8"?>
<svg width="28px" height="28px" viewBox="0 0 28 28" version="1.1" xmlns="http://www.w3.org/2000/svg" xmlns:xlink="http://www.w3.org/1999/xlink">
    <!-- Generator: Sketch 58 (84663) - https://sketch.com -->
    <title></title>
    <desc>Created with Sketch.</desc>
    <g id="Website" stroke="none" stroke-width="1" fill="none" fill-rule="evenodd">
        <g id="Home-Copy" transform="translate(-327.000000, -14.000000)" fill="#FFFFFF" fill-rule="nonzero" stroke="#181818">
            <path d="M353.580756,18.257732 L343.838488,28 L343.838488,28 L353.580756,37.742268 C354.364583,38.5260949 354.364583,39.7969292 353.580756,40.580756 C352.796929,41.3645828 351.526095,41.3645828 350.742268,40.580756 L341,30.838488 L341,30.838488 L331.257732,40.580756 C330.473905,41.3645828 329.203071,41.3645828 328.419244,40.580756 C327.635417,39.7969292 327.635417,38.5260949 328.419244,37.742268 L338.161512,28 L338.161512,28 L328.419244,18.257732 C327.635417,17.4739051 327.635417,16.2030708 328.419244,15.419244 C329.203071,14.6354172 330.473905,14.6354172 331.257732,15.419244 L341,25.161512 L341,25.161512 L350.742268,15.419244 C351.526095,14.6354172 352.796929,14.6354172 353.580756,15.419244 C354.364583,16.2030708 354.364583,17.4739051 353.580756,18.257732 Z" id=""></path>
        </g>
    </g>
</svg>