<?xml version="1.0" encoding="UTF-8"?>
<svg width="25px" height="16px" viewBox="0 0 25 16" version="1.1" xmlns="http://www.w3.org/2000/svg" xmlns:xlink="http://www.w3.org/1999/xlink">
    <!-- Generator: Sketch 58 (84663) - https://sketch.com -->
    <title></title>
    <desc>Created with Sketch.</desc>
    <g id="Website" stroke="none" stroke-width="1" fill="none" fill-rule="evenodd">
        <g id="Home" transform="translate(-330.000000, -20.000000)" fill="#FFFFFF" fill-rule="nonzero">
            <path d="M330.3003,21.5345269 C330.2002,21.4390447 330.125125,21.340154 330.075075,21.2378517 C330.025025,21.1355494 330,21.0161985 330,20.8797954 C330,20.7570326 330.025025,20.6410918 330.075075,20.5319693 C330.125125,20.4228469 330.2002,20.3273661 330.3003,20.2455243 C330.400401,20.1636825 330.517183,20.102302 330.650651,20.0613811 C330.784118,20.0204602 330.925925,20 331.076076,20 L353.923924,20 C354.074075,20 354.215882,20.0204602 354.349349,20.0613811 C354.482817,20.102302 354.599599,20.1636825 354.6997,20.2455243 C354.7998,20.3273661 354.874875,20.4228469 354.924925,20.5319693 C354.974975,20.6410918 355,20.7570326 355,20.8797954 C355,21.0161985 354.974975,21.1355494 354.924925,21.2378517 C354.874875,21.340154 354.7998,21.4390447 354.6997,21.5345269 C354.599599,21.6163687 354.482817,21.6777492 354.349349,21.7186701 C354.215882,21.759591 354.074075,21.7800512 353.923924,21.7800512 L331.076076,21.7800512 C330.925925,21.7800512 330.784118,21.759591 330.650651,21.7186701 C330.517183,21.6777492 330.400401,21.6163687 330.3003,21.5345269 Z M354.6997,27.3657289 C354.7998,27.4475707 354.874875,27.5430515 354.924925,27.6521739 C354.974975,27.7612964 355,27.8772372 355,28 C355,28.1227628 354.974975,28.2387036 354.924925,28.3478261 C354.874875,28.4569485 354.7998,28.5524293 354.6997,28.6342711 C354.599599,28.7161129 354.482817,28.7774934 354.349349,28.8184143 C354.215882,28.8593352 354.074075,28.8797954 353.923924,28.8797954 L331.076076,28.8797954 C330.925925,28.8797954 330.784118,28.8593352 330.650651,28.8184143 C330.517183,28.7774934 330.400401,28.7161129 330.3003,28.6342711 C330.2002,28.5524293 330.125125,28.4569485 330.075075,28.3478261 C330.025025,28.2387036 330,28.1227628 330,28 C330,27.8772372 330.025025,27.7612964 330.075075,27.6521739 C330.125125,27.5430515 330.2002,27.4475707 330.3003,27.3657289 C330.400401,27.2838871 330.517183,27.2225066 330.650651,27.1815857 C330.784118,27.1406648 330.925925,27.1202046 331.076076,27.1202046 L353.923924,27.1202046 C354.074075,27.1202046 354.215882,27.1406648 354.349349,27.1815857 C354.482817,27.2225066 354.599599,27.2838871 354.6997,27.3657289 Z M354.6997,34.4654731 C354.7998,34.547315 354.874875,34.6427957 354.924925,34.7519182 C354.974975,34.8610406 355,34.9769815 355,35.0997442 C355,35.2361473 354.974975,35.3554982 354.924925,35.4578005 C354.874875,35.5601028 354.7998,35.6589936 354.6997,35.7544757 C354.599599,35.8363175 354.482817,35.897698 354.349349,35.9386189 C354.215882,35.9795398 354.074075,36 353.923924,36 L331.076076,36 C330.925925,36 330.784118,35.9795398 330.650651,35.9386189 C330.517183,35.897698 330.400401,35.8363175 330.3003,35.7544757 C330.2002,35.6589936 330.125125,35.5601028 330.075075,35.4578005 C330.025025,35.3554982 330,35.2361473 330,35.0997442 C330,34.9769815 330.025025,34.8610406 330.075075,34.7519182 C330.125125,34.6427957 330.2002,34.547315 330.3003,34.4654731 C330.400401,34.3836313 330.517183,34.3222508 330.650651,34.2813299 C330.784118,34.240409 330.925925,34.2199488 331.076076,34.2199488 L353.923924,34.2199488 C354.074075,34.2199488 354.215882,34.240409 354.349349,34.2813299 C354.482817,34.3222508 354.599599,34.3836313 354.6997,34.4654731 Z" id=""></path>
        </g>
    </g>
</svg>