<?xml version="1.0" encoding="UTF-8"?>
<svg width="20px" height="16px" viewBox="0 0 20 16" version="1.1" xmlns="http://www.w3.org/2000/svg" xmlns:xlink="http://www.w3.org/1999/xlink">
    <!-- Generator: Sketch 58 (84663) - https://sketch.com -->
    <title></title>
    <desc>Created with Sketch.</desc>
    <g id="Page-1" stroke="none" stroke-width="1" fill="none" fill-rule="evenodd">
        <g id="Home" transform="translate(-80.000000, -1041.000000)" fill="#FFFFFF" fill-rule="nonzero">
            <path d="M100,1042.9 C99.4416244,1043.7 98.7436548,1044.4125 97.9441624,1044.9875 C97.9568528,1045.1625 97.9568528,1045.3375 97.9568528,1045.5125 C97.9568528,1050.85 93.8324873,1057 86.2944162,1057 C83.9720812,1057 81.8147208,1056.3375 80,1055.1875 C80.3299492,1055.225 80.6472081,1055.2375 80.9898477,1055.2375 C82.9060914,1055.2375 84.6700508,1054.6 86.0786802,1053.5125 C84.2766497,1053.475 82.7664975,1052.3125 82.2461929,1050.7125 C82.5,1050.75 82.7538071,1050.775 83.0203046,1050.775 C83.3883249,1050.775 83.7563452,1050.725 84.0989848,1050.6375 C82.2903741,1050.27639 80.9171698,1048.75616 80.8179319,1046.89162 L80.8121827,1046.625 L80.8121827,1046.625 C81.357868,1046.925 81.9923858,1047.1125 82.6649746,1047.1375 C81.5609137,1046.4125 80.8375635,1045.175 80.8375635,1043.775 C80.8375635,1043.025 81.0406091,1042.3375 81.3959391,1041.7375 C83.4137056,1044.1875 86.4467005,1045.7875 89.8477157,1045.9625 C89.784264,1045.6625 89.7461929,1045.35 89.7461929,1045.0375 C89.7461929,1042.8125 91.5736041,1041 93.8451777,1041 C95.0253807,1041 96.0913706,1041.4875 96.8401015,1042.275 C97.7664975,1042.1 98.6548223,1041.7625 99.4416244,1041.3 C99.1370558,1042.2375 98.4898477,1043.025 97.6395939,1043.525 C98.464467,1043.4375 99.2639594,1043.2125 100,1042.9 Z" id=""></path>
        </g>
    </g>
</svg>