<?xml version="1.0" encoding="UTF-8"?>
<svg width="120px" height="120px" viewBox="0 0 120 120" version="1.1" xmlns="http://www.w3.org/2000/svg" xmlns:xlink="http://www.w3.org/1999/xlink">
    <!-- Generator: Sketch 63.1 (92452) - https://sketch.com -->
    <title>Group 2</title>
    <desc>Created with Sketch.</desc>
    <g id="Matchmaking" stroke="none" stroke-width="1" fill="none" fill-rule="evenodd">
        <g id="Welcome-(1)" transform="translate(-147.000000, -44.000000)">
            <g id="Group-2" transform="translate(147.000000, 44.000000)">
                <rect id="Rectangle" fill="#0B0A13" x="0" y="0" width="120" height="120" rx="5"></rect>
                <g id="Logo" transform="translate(22.000000, 20.000000)">
                    <path d="M34.2520751,53.9655096 L50.5487026,53.9655096 L76.3076293,79.286862 L75.0566381,80.8351861 L34.2520751,53.9655096 Z M49.73,55.965 L40.925,55.965 L67.594,73.526 L49.73,55.965 Z M16.8678499,43.7444628 L45.0957423,43.7444628 L55.650457,52.0684298 L27.4225935,52.0684298 L16.8678499,43.7444628 Z M44.402,45.744 L22.632,45.744 L28.115,50.068 L49.885,50.068 L44.402,45.744 Z M43.1162959,3.64177788 L46.1814497,5.1934239 C59.7792624,12.0769257 68.5356414,26.030839 68.5356414,41.5471074 C68.5356414,42.2491094 68.5177882,42.9496584 68.4822336,43.6483904 L68.4407841,44.3465032 L68.3886305,45.1149238 L66.9598452,45.3870685 L45.6262449,28.5617159 C39.7573395,23.9330468 42.9485667,17.1137989 49.7219678,15.2890431 L49.988,15.22 L43.1162959,3.64177788 Z M48.5793383,8.85657551 L48.511,8.814 L53.211805,16.7314371 L51.7080767,16.929122 C45.3811713,17.7608773 42.2721693,23.1595584 46.6842582,26.8448593 L46.8647632,26.9913426 L66.523,42.496 L66.5356414,41.5471074 C66.5356414,41.1436941 66.5294175,40.7413922 66.5170458,40.3403087 L61.4335283,36.7162717 L54.6231064,31.2083414 C49.9468446,27.4257791 48.3367077,22.3572924 52.7978457,19.1964101 L53.0148819,19.0473466 L53.8914992,18.4636075 L66.4915887,39.6906106 C65.8953185,27.1456738 59.2845142,15.8577862 49.0095749,9.13407978 L48.5793383,8.85657551 Z M1.9759122,0.0833450959 L2.58443205,-0.776200355 L56.6288905,41.8473829 L28.4010979,41.8473829 L17.8463846,33.5231956 L43.781,33.523 L16.5398755,25.5719475 C2.60794792,21.505041 -5.56406554,11.175385 1.74953782,0.409705273 L1.9759122,0.0833450959 Z M45.381,35.523 L23.611,35.523 L29.094,39.847 L50.863,39.847 L45.381,35.523 Z M53.299,21.385 L53.2053264,21.4824862 C51.220603,23.6226525 52.3904945,26.7324986 55.6550248,29.4674386 L55.8808398,29.6533151 L60.357,33.276 L53.299,21.385 Z M3.025,2.119 L2.87459025,2.3672418 C-2.41732931,11.2904032 4.51714605,19.8473177 16.7286416,23.5416146 L17.100295,23.6520699 L38.1,29.782 L3.025,2.119 Z" id="Shape-Copy-2" fill="#C8A700" fill-rule="nonzero"></path>
                    <path d="M53.8914601,19.2185344 L64.1847934,36.5602204 L62.3846832,35.2775758 L55.5743251,29.769697 C52.3004959,27.1215427 49.2660055,22.2986226 53.8914601,19.2185344 Z M46.049697,33.8620386 L21.0515041,33.8620386 L29.070303,40.1862259 L54.0684298,40.1862259 L46.049697,33.8620386 Z M45.0711846,44.0833058 L20.0730358,44.0833058 L28.0917906,50.4072727 L53.0899174,50.4072727 L45.0711846,44.0833058 Z M3.1144022,0 L43.0833058,31.522865 L17.1424132,23.950854 C6.65057851,20.8881543 -5.18038567,11.7165399 3.1144022,0 Z M75.9289256,79.338843 L50.4618182,54.3043526 L37.9112948,54.3043526 L75.9289256,79.338843 Z M51.9000551,15.2764959 C45.4460606,16.1249587 40.6004408,22.4090358 46.5678237,27.1153719 L67.544573,43.6592837 C67.6186226,43.6453994 67.6922314,43.6317355 67.7653994,43.6176309 C67.8266667,42.7149311 67.8579614,41.8040771 67.8579614,40.8859504 C67.8579614,25.3941598 58.9892011,11.9734876 46.0521212,5.42446281 L51.9000551,15.2764959 Z" id="Shape" fill="#FFD500"></path>
                </g>
            </g>
        </g>
    </g>
</svg>