<?xml version="1.0" encoding="UTF-8"?>
<svg width="19px" height="19px" viewBox="0 0 19 19" version="1.1" xmlns="http://www.w3.org/2000/svg" xmlns:xlink="http://www.w3.org/1999/xlink">
    <!-- Generator: Sketch 58 (84663) - https://sketch.com -->
    <title></title>
    <desc>Created with Sketch.</desc>
    <g id="Page-1" stroke="none" stroke-width="1" fill="none" fill-rule="evenodd">
        <g id="Home" transform="translate(-151.000000, -1040.000000)" fill="#FFFFFF" fill-rule="nonzero">
            <path d="M160.5,1040 C165.744792,1040 170,1044.36245 170,1049.73942 C170,1054.03846 167.278646,1057.69074 163.505859,1058.98426 C163.023438,1059.07303 162.85026,1058.76867 162.85026,1058.51504 L162.86263,1055.83924 L162.86263,1055.83924 C162.86263,1054.92617 162.565755,1054.34282 162.219401,1054.03846 C164.334635,1053.79751 166.561198,1052.97321 166.561198,1049.23216 C166.561198,1048.16691 166.190104,1047.30456 165.583984,1046.61976 L165.626424,1046.50032 C165.746975,1046.12847 165.943436,1045.21882 165.485026,1044.03273 C164.693359,1043.7791 162.875,1045.03457 162.875,1045.03457 C162.120443,1044.81898 161.304036,1044.70485 160.5,1044.70485 C159.695964,1044.70485 158.879557,1044.81898 158.125,1045.03457 L157.876628,1044.87248 C157.351505,1044.54185 156.126716,1043.83674 155.514974,1044.03273 C154.995443,1045.37697 155.317057,1046.36613 155.416016,1046.61976 C154.809896,1047.30456 154.438802,1048.16691 154.438802,1049.23216 C154.438802,1052.96053 156.652995,1053.79751 158.768229,1054.03846 C158.496094,1054.29209 158.248698,1054.72326 158.162109,1055.34466 L158.009327,1055.41055 C157.390801,1055.65676 156.163357,1055.90476 155.403646,1054.53304 C154.884115,1053.60729 153.94401,1053.5312 153.94401,1053.5312 C153.016276,1053.51852 153.882161,1054.12723 153.882161,1054.12723 C154.500651,1054.4189 154.933594,1055.54756 154.933594,1055.54756 C155.490234,1057.28493 158.13737,1056.70158 158.13737,1056.70158 L158.14974,1058.51504 L158.14974,1058.51504 C158.14974,1058.76867 157.976562,1059.07303 157.494141,1058.98426 C153.721354,1057.69074 151,1054.03846 151,1049.73942 C151,1044.36245 155.255208,1040 160.5,1040 Z M154.599609,1053.98773 C154.57487,1054.03846 154.500651,1054.05114 154.438802,1054.0131 C154.364583,1053.97505 154.327474,1053.91164 154.352214,1053.86092 C154.376953,1053.82287 154.438802,1053.81019 154.513021,1053.83555 C154.58724,1053.8736 154.624349,1053.93701 154.599609,1053.98773 Z M154.983073,1054.4189 C154.933594,1054.46963 154.847005,1054.44427 154.785156,1054.38086 C154.723307,1054.30477 154.710938,1054.216 154.760417,1054.17796 C154.809896,1054.12723 154.896484,1054.15259 154.958333,1054.216 C155.020182,1054.29209 155.032552,1054.38086 154.983073,1054.4189 Z M155.354167,1054.98957 C155.304688,1055.02762 155.205729,1054.98957 155.14388,1054.9008 C155.082031,1054.81203 155.082031,1054.71058 155.14388,1054.67254 C155.205729,1054.62181 155.304688,1054.65985 155.354167,1054.74862 C155.416016,1054.8374 155.416016,1054.93885 155.354167,1054.98957 Z M155.873698,1055.5222 C155.824219,1055.58561 155.712891,1055.57292 155.626302,1055.48415 C155.539714,1055.40806 155.514974,1055.29393 155.576823,1055.2432 C155.626302,1055.1798 155.73763,1055.19248 155.824219,1055.28125 C155.898438,1055.35734 155.923177,1055.47147 155.873698,1055.5222 Z M156.578776,1055.83924 C156.554036,1055.91533 156.442708,1055.95337 156.34375,1055.91533 C156.232422,1055.88996 156.158203,1055.80119 156.182943,1055.7251 C156.207682,1055.64901 156.31901,1055.61097 156.417969,1055.63633 C156.529297,1055.67438 156.603516,1055.76315 156.578776,1055.83924 Z M157.358073,1055.90264 C157.358073,1055.97873 157.271484,1056.04214 157.160156,1056.04214 C157.036458,1056.05482 156.94987,1055.99142 156.94987,1055.90264 C156.94987,1055.82656 157.036458,1055.76315 157.147786,1055.76315 C157.259115,1055.75047 157.358073,1055.81387 157.358073,1055.90264 Z M158.075521,1055.77583 C158.087891,1055.85192 158.013672,1055.92801 157.902344,1055.95337 C157.791016,1055.97873 157.692057,1055.92801 157.679688,1055.85192 C157.667318,1055.76315 157.741536,1055.68706 157.852865,1055.6617 C157.964193,1055.64901 158.063151,1055.69974 158.075521,1055.77583 Z" id=""></path>
        </g>
    </g>
</svg>