<?xml version="1.0" encoding="UTF-8"?>
<svg width="20px" height="16px" viewBox="0 0 20 16" version="1.1" xmlns="http://www.w3.org/2000/svg" xmlns:xlink="http://www.w3.org/1999/xlink">
    <!-- Generator: Sketch 58 (84663) - https://sketch.com -->
    <title></title>
    <desc>Created with Sketch.</desc>
    <g id="Page-1" stroke="none" stroke-width="1" fill="none" fill-rule="evenodd">
        <g id="Home" transform="translate(-186.000000, -1042.000000)" fill="#FFFFFF" fill-rule="nonzero">
            <path d="M196,1049.01796 L204.028846,1044.01198 L187.971154,1044.01198 L196,1049.01796 Z M204.028846,1055.98802 L204.028846,1046.02395 L196,1050.98204 L187.971154,1046.02395 L187.971154,1055.98802 L204.028846,1055.98802 Z M204.028846,1042 C204.573721,1042 205.03846,1042.1996 205.423077,1042.5988 C205.807694,1042.99801 206,1043.46906 206,1044.01198 L206,1055.98802 C206,1056.53094 205.807694,1057.00199 205.423077,1057.4012 C205.03846,1057.8004 204.573721,1058 204.028846,1058 L187.971154,1058 C187.426279,1058 186.96154,1057.8004 186.576923,1057.4012 C186.192306,1057.00199 186,1056.53094 186,1055.98802 L186,1044.01198 C186,1043.46906 186.192306,1042.99801 186.576923,1042.5988 C186.96154,1042.1996 187.426279,1042 187.971154,1042 L204.028846,1042 Z" id=""></path>
        </g>
    </g>
</svg>