<?xml version="1.0" encoding="UTF-8"?>
<svg width="19px" height="16px" viewBox="0 0 19 16" version="1.1" xmlns="http://www.w3.org/2000/svg" xmlns:xlink="http://www.w3.org/1999/xlink">
    <!-- Generator: Sketch 58 (84663) - https://sketch.com -->
    <title></title>
    <desc>Created with Sketch.</desc>
    <g id="Page-1" stroke="none" stroke-width="1" fill="none" fill-rule="evenodd">
        <g id="Home" transform="translate(-116.000000, -1041.000000)" fill="#FFFFFF" fill-rule="nonzero">
            <path d="M122.329799,1043.98681 C122.329799,1043.97625 122.308594,1043.94459 122.297991,1043.93404 L116.880022,1041.23219 C116.731585,1041.15831 116.583147,1041.07388 116.413504,1041.07388 C116.127232,1041.07388 116,1041.31662 116,1041.58047 L116,1053.61214 C116,1053.92876 116.233259,1054.30871 116.530134,1054.45646 L121.460379,1056.91557 C121.566406,1056.96834 121.683036,1057 121.810268,1057 C122.170759,1057 122.329799,1056.69393 122.329799,1056.36675 L122.329799,1043.98681 Z M123.008371,1045.05277 L123.008371,1051.38522 L128.670201,1054.19261 L123.008371,1045.05277 Z M135,1045.24274 L129.274554,1054.49868 L133.950335,1056.82058 C134.098772,1056.90501 134.268415,1056.95778 134.448661,1056.95778 C134.798549,1056.95778 135,1056.71504 135,1056.36675 L135,1045.24274 Z M134.968192,1043.97625 L134.882244,1044.12379 C134.183856,1045.28542 129.455192,1052.92339 129.0625,1053.54881 L124.927455,1046.85752 L128.362723,1041.29551 C128.479353,1041.10554 128.691406,1041 128.914062,1041 C129.009487,1041 129.104911,1041.02111 129.189732,1041.06332 L134.925781,1043.91293 C134.946987,1043.92348 134.968192,1043.94459 134.968192,1043.97625 Z" id=""></path>
        </g>
    </g>
</svg>