<?xml version="1.0" encoding="UTF-8"?>
<svg width="64px" height="64px" viewBox="0 0 64 64" version="1.1" xmlns="http://www.w3.org/2000/svg" xmlns:xlink="http://www.w3.org/1999/xlink">
    <!-- Generator: Sketch 59.1 (86144) - https://sketch.com -->
    <title>Group</title>
    <desc>Created with Sketch.</desc>
    <defs>
        <rect id="path-1" x="0" y="0" width="64" height="64" rx="8"></rect>
        <path d="M45.06191,10 C48.9207559,10 52.0489685,13.1178205 52.0489685,16.963847 L52.0489685,43.948754 C52.0489685,47.7947804 48.9207559,50.9126009 45.06191,50.9126009 L41.0012828,50.9126009 L32.7236827,57.265553 C32.4511446,57.4747225 32.1168306,57.5881473 31.7728523,57.5881473 C30.9121489,57.5881473 30.2144108,56.8927273 30.2144108,56.0348831 L30.2144108,50.9126009 L17.9870585,50.9126009 C14.1282126,50.9126009 11,47.7947804 11,43.948754 L11,16.963847 C11,13.1178205 14.1282126,10 17.9870585,10 L45.06191,10 Z M45.06191,15.2228852 L17.9870585,15.2228852 C17.022347,15.2228852 16.2402939,16.0023403 16.2402939,16.963847 L16.2402939,43.948754 C16.2402939,44.9102606 17.022347,45.6897157 17.9870585,45.6897157 L45.06191,45.6897157 C46.0266215,45.6897157 46.8086747,44.9102606 46.8086747,43.948754 L46.8086747,16.963847 C46.8086747,16.0023403 46.0266215,15.2228852 45.06191,15.2228852 Z M31.5244843,17.6167076 C32.127429,17.6167076 32.6162122,18.1038671 32.6162122,18.7048087 L32.6169175,26.9798994 C33.8048764,27.3986432 34.7305887,28.37051 35.0825037,29.5849841 L43.7518366,29.5858196 C44.3547813,29.5858196 44.8435645,30.0729791 44.8435645,30.6739207 C44.8435645,31.2748623 44.3547813,31.7620218 43.7518366,31.7620218 L35.0823849,31.7632671 C34.6088906,33.3966441 33.0974679,34.5910846 31.3061387,34.5910846 C30.3493857,34.5910846 29.4724802,34.2503522 28.7909152,33.6839967 L24.1508911,37.5979282 C23.6906114,37.9861018 23.0017552,37.9288878 22.6122878,37.4701372 C22.2228204,37.0113866 22.280225,36.3248189 22.7405048,35.9366453 L27.5625209,31.8700474 C27.4413421,31.4929927 27.3759183,31.0910716 27.3759183,30.6739207 C27.3759183,28.8099791 28.6821307,27.2501062 30.4319981,26.8539941 L30.4327564,18.7048087 C30.4327564,18.1038671 30.9215396,17.6167076 31.5244843,17.6167076 Z M31.3061387,28.9329589 C30.3414273,28.9329589 29.559374,29.712414 29.559374,30.6739207 C29.559374,31.6354273 30.3414273,32.4148824 31.3061387,32.4148824 C32.2708502,32.4148824 33.0529033,31.6354273 33.0529033,30.6739207 C33.0529033,29.712414 32.2708502,28.9329589 31.3061387,28.9329589 Z" id="path-3"></path>
        <filter x="-1.8%" y="-1.6%" width="107.3%" height="106.3%" filterUnits="objectBoundingBox" id="filter-4">
            <feMorphology radius="0.25" operator="dilate" in="SourceAlpha" result="shadowSpreadOuter1"></feMorphology>
            <feOffset dx="1" dy="1" in="shadowSpreadOuter1" result="shadowOffsetOuter1"></feOffset>
            <feColorMatrix values="0 0 0 0 0   0 0 0 0 0   0 0 0 0 0  0 0 0 0.15 0" type="matrix" in="shadowOffsetOuter1"></feColorMatrix>
        </filter>
    </defs>
    <g id="Website" stroke="none" stroke-width="1" fill="none" fill-rule="evenodd">
        <g id="Advisor" transform="translate(-913.000000, -362.000000)">
            <g id="Group-Copy-4" transform="translate(897.000000, 350.000000)">
                <g id="Group" transform="translate(16.000000, 12.000000)">
                    <mask id="mask-2" fill="white">
                        <use xlink:href="#path-1"></use>
                    </mask>
                    <use id="Rectangle" fill="#46BEDE" xlink:href="#path-1"></use>
                    <g id="Combined-Shape" fill-rule="nonzero" mask="url(#mask-2)">
                        <use fill="black" fill-opacity="1" filter="url(#filter-4)" xlink:href="#path-3"></use>
                        <use fill="#FFFFFF" xlink:href="#path-3"></use>
                    </g>
                </g>
            </g>
        </g>
    </g>
</svg>