<?xml version="1.0" encoding="UTF-8"?>
<svg width="32px" height="26px" viewBox="0 0 32 26" version="1.1" xmlns="http://www.w3.org/2000/svg" xmlns:xlink="http://www.w3.org/1999/xlink">
    <!-- Generator: Sketch 58 (84663) - https://sketch.com -->
    <title></title>
    <desc>Created with Sketch.</desc>
    <g id="Website" stroke="none" stroke-width="1" fill="none" fill-rule="evenodd">
        <g id="Post" transform="translate(-676.000000, -185.000000)" fill="#006AFF" fill-rule="nonzero">
            <g id="Group-Copy-6" transform="translate(660.000000, 174.000000)">
                <path d="M48,14.0875 C47.106599,15.3875 45.9898477,16.5453125 44.7106599,17.4796875 C44.7309645,17.7640625 44.7309645,18.0484375 44.7309645,18.3328125 C44.7309645,27.00625 38.1319797,37 26.071066,37 C22.3553299,37 18.9035533,35.9234375 16,34.0546875 C16.5279188,34.115625 17.035533,34.1359375 17.5837563,34.1359375 C20.6497462,34.1359375 23.4720812,33.1 25.7258883,31.3328125 C22.8426396,31.271875 20.4263959,29.3828125 19.5939086,26.7828125 C20,26.84375 20.4060914,26.884375 20.8324873,26.884375 C21.4213198,26.884375 22.0101523,26.803125 22.5583756,26.6609375 C19.6645986,26.0741319 17.4674716,23.603753 17.308691,20.573883 L17.2994924,20.140625 L17.2994924,20.140625 C18.1725888,20.628125 19.1878173,20.9328125 20.2639594,20.9734375 C18.4974619,19.7953125 17.3401015,17.784375 17.3401015,15.509375 C17.3401015,14.290625 17.6649746,13.1734375 18.2335025,12.1984375 C21.4619289,16.1796875 26.3147208,18.7796875 31.7563452,19.0640625 C31.6548223,18.5765625 31.5939086,18.06875 31.5939086,17.5609375 C31.5939086,13.9453125 34.5177665,11 38.1522843,11 C40.0406091,11 41.7461929,11.7921875 42.9441624,13.071875 C44.4263959,12.7875 45.8477157,12.2390625 47.106599,11.4875 C46.6192893,13.0109375 45.5837563,14.290625 44.2233503,15.103125 C45.5431472,14.9609375 46.822335,14.5953125 48,14.0875 Z" id=""></path>
            </g>
        </g>
    </g>
</svg>